<svg xmlns="http://www.w3.org/2000/svg" width="64" height="64" viewBox="0 0 64 64" fill="none">
  <defs>
    <linearGradient id="sun" x1="32" y1="14" x2="32" y2="48" gradientUnits="userSpaceOnUse">
      <stop offset="0" stop-color="#ffd15a"/>
      <stop offset="0.42" stop-color="#ff4fa0"/>
      <stop offset="1" stop-color="#ff7a1f"/>
    </linearGradient>
    <linearGradient id="palm" x1="20" y1="18" x2="40" y2="50" gradientUnits="userSpaceOnUse">
      <stop offset="0" stop-color="#38e1f0"/>
      <stop offset="1" stop-color="#16c7e0"/>
    </linearGradient>
    <mask id="stripes">
      <rect width="64" height="64" fill="black"/>
      <circle cx="32" cy="28" r="15" fill="white"/>
      <rect x="13" y="29.5" width="38" height="1.6" fill="black"/>
      <rect x="13" y="33.2" width="38" height="2.1" fill="black"/>
      <rect x="13" y="37.4" width="38" height="2.8" fill="black"/>
      <rect x="13" y="42.2" width="38" height="3.4" fill="black"/>
    </mask>
  </defs>
  <rect width="64" height="64" rx="15" fill="#0c0719"/>
  <rect width="64" height="64" fill="url(#sun)" mask="url(#stripes)"/>
  <line x1="12" y1="50" x2="52" y2="50" stroke="url(#sun)" stroke-width="2.6" stroke-linecap="round"/>
  <g stroke="url(#palm)" stroke-width="2.3" stroke-linecap="round" stroke-linejoin="round" fill="none">
    <path d="M43 50c-.6-6-1.4-11-2.4-16"/>
    <path d="M40.6 34c-2.6-2-5.6-2.7-8.9-2"/>
    <path d="M40.6 34c-1.4-3-1.6-6 .1-9.2"/>
    <path d="M40.6 34c2.9-1.6 6-1.9 9.4-.7"/>
    <path d="M40.6 34c.6-2.6 2.3-4.7 5-6.3"/>
  </g>
  <circle cx="40.7" cy="33.7" r="1.5" fill="url(#palm)"/>
</svg>
